<svg width="115" height="22" viewBox="0 0 115 22" fill="none" xmlns="http://www.w3.org/2000/svg">
<path d="M11.0248 0.019043C4.96114 0.019043 0 4.96916 0 11.0659C0 16.5783 4.03506 21.1535 9.3049 21.9804V14.2631H6.50461V11.0659H9.3049V8.62938C9.3049 5.86217 10.9476 4.34075 13.4723 4.34075C14.674 4.34075 15.9308 4.55022 15.9308 4.55022V7.27334H14.5417C13.1746 7.27334 12.7446 8.12224 12.7446 8.99322V11.0659H15.8095L15.3134 14.2631H12.7446V21.9804C15.3425 21.57 17.7082 20.2445 19.4145 18.243C21.1208 16.2416 22.0555 13.6959 22.0495 11.0659C22.0495 4.96916 17.0884 0.019043 11.0248 0.019043Z" fill="white"/>
<path d="M57.1001 0.019043C51.035 0.019043 46.1194 4.93461 46.1194 10.9997C46.1194 17.0648 51.035 21.9804 57.1001 21.9804C63.1652 21.9804 68.0808 17.0648 68.0808 10.9997C68.0808 4.93461 63.1652 0.019043 57.1001 0.019043ZM54.029 15.5936H51.8886V8.74353H54.029V15.5936ZM52.9009 7.88567H52.8837C52.1073 7.88567 51.6055 7.36237 51.6055 6.69752C51.6055 6.01981 52.1245 5.50938 52.9137 5.50938C53.703 5.50938 54.1877 6.01981 54.2048 6.69752C54.2091 7.35808 53.7073 7.88567 52.9009 7.88567ZM62.5905 15.5936H60.1627V12.0506C60.1627 11.1241 59.7852 10.4893 58.9488 10.4893C58.3097 10.4893 57.9537 10.9182 57.7907 11.33C57.7307 11.4758 57.7392 11.6817 57.7392 11.8919V15.5936H55.3329C55.3329 15.5936 55.3629 9.31401 55.3329 8.74353H57.7392V9.82015C57.8808 9.34833 58.6486 8.67919 59.8753 8.67919C61.398 8.67919 62.5905 9.66574 62.5905 11.7847V15.5936Z" fill="white"/>
<path d="M103.22 0.019043C97.1544 0.019043 92.2388 4.93461 92.2388 10.9997C92.2388 17.0648 97.1544 21.9804 103.22 21.9804C109.285 21.9804 114.2 17.0648 114.2 10.9997C114.2 4.93461 109.285 0.019043 103.22 0.019043ZM107.603 9.29257C107.607 9.38693 107.607 9.48559 107.607 9.58424C107.607 12.5653 105.338 16.0054 101.186 16.0054C99.9124 16.0054 98.7243 15.6322 97.7292 14.9931C97.905 15.0145 98.0852 15.0231 98.2696 15.0231C99.3248 15.0231 100.298 14.6628 101.071 14.058C100.084 14.0408 99.2476 13.3889 98.9645 12.4924C99.1018 12.5181 99.2433 12.531 99.3891 12.531C99.595 12.531 99.7966 12.5053 99.9854 12.4495C98.9516 12.2436 98.1753 11.33 98.1753 10.2362V10.2105C98.4798 10.3778 98.8272 10.4807 99.1961 10.4936C98.5913 10.0904 98.1924 9.39551 98.1924 8.61485C98.1924 8.20308 98.3039 7.81275 98.497 7.47818C99.6122 8.84647 101.272 9.74294 103.147 9.83731C103.108 9.67431 103.087 9.50274 103.087 9.32259C103.087 8.07869 104.099 7.0664 105.343 7.0664C105.99 7.0664 106.578 7.34092 106.99 7.77843C107.505 7.67549 107.985 7.49105 108.422 7.2294C108.255 7.75699 107.895 8.19879 107.432 8.47759C107.886 8.42183 108.324 8.30173 108.727 8.12158C108.427 8.57625 108.045 8.97087 107.603 9.29257Z" fill="white"/>
<ellipse cx="103.226" cy="10.9998" rx="7.74973" ry="7.43974" fill="white"/>
<g clip-path="url(#clip0_224_67)">
<path d="M104.69 9.71864C106.176 8.09194 107.658 6.46523 109.178 4.79969C108.829 4.79969 108.544 4.79106 108.263 4.80401C108.165 4.80832 108.041 4.8601 107.973 4.93345C107.113 5.86115 106.266 6.79748 105.41 7.72949C105.01 8.16529 104.609 8.60109 104.201 9.04552C104.137 8.95923 104.077 8.88587 104.022 8.81252C103.068 7.51806 102.114 6.2236 101.152 4.93345C101.101 4.8601 100.986 4.79969 100.896 4.79969C99.7808 4.79969 98.6609 4.80401 97.541 4.80401C97.4984 4.80401 97.4558 4.81695 97.3834 4.82558C98.9845 6.99596 100.573 9.14477 102.157 11.2979C100.547 13.0584 98.9589 14.7972 97.3366 16.575C97.673 16.575 97.9498 16.5663 98.2266 16.5793C98.3628 16.5836 98.4607 16.5448 98.5587 16.4369C99.5849 15.3064 100.62 14.1759 101.65 13.0497C101.978 12.6916 102.302 12.3378 102.638 11.971C102.681 12.0228 102.715 12.0616 102.74 12.1005C103.8 13.5373 104.865 14.9742 105.925 16.4153C106.006 16.5275 106.087 16.5836 106.236 16.5836C107.343 16.575 108.45 16.5793 109.557 16.5793C109.608 16.5793 109.66 16.5707 109.732 16.5577C108.046 14.2622 106.372 11.9969 104.69 9.71864ZM106.555 15.7508C106.483 15.7508 106.398 15.6732 106.347 15.6041C104.333 12.8858 102.327 10.1631 100.317 7.44471C99.9085 6.8924 99.504 6.3401 99.0952 5.7878C99.0611 5.74465 99.0356 5.69719 98.9802 5.61952C99.538 5.61952 100.066 5.6152 100.594 5.62815C100.654 5.62815 100.722 5.71013 100.764 5.77054C102.297 7.84599 103.83 9.92576 105.363 12.0012C106.236 13.1878 107.113 14.3701 107.986 15.5567C108.029 15.6128 108.067 15.6688 108.131 15.7638C107.573 15.7551 107.062 15.7638 106.555 15.7508Z" fill="#1B0F2B"/>
</g>
<defs>
<clipPath id="clip0_224_67">
<rect width="12.3996" height="11.7796" fill="white" transform="translate(97.3366 4.7998)"/>
</clipPath>
</defs>
</svg>
